<mxfile host="65bd71144e">
    <diagram id="RJNmUkppyvwB2w5q9kFV" name="Page-1">
        <mxGraphModel dx="1892" dy="916" grid="1" gridSize="10" guides="1" tooltips="1" connect="1" arrows="1" fold="1" page="1" pageScale="1" pageWidth="850" pageHeight="1100" background="#ffffff" math="0" shadow="0">
            <root>
                <mxCell id="0"/>
                <mxCell id="1" parent="0"/>
                <mxCell id="122" value="Admin" style="swimlane;whiteSpace=wrap;html=1;strokeColor=#1A1A1A;fillColor=#B3B3B3;" vertex="1" parent="1">
                    <mxGeometry x="20" y="690" width="1110" height="350" as="geometry"/>
                </mxCell>
                <mxCell id="86" value="Select add&lt;br&gt;Feed" style="html=1;strokeColor=#1A1A1A;fillColor=#B3B3B3;" vertex="1" parent="122">
                    <mxGeometry x="70" y="162.5" width="90" height="40" as="geometry"/>
                </mxCell>
                <mxCell id="87" value="Show message&lt;br&gt;specifing the invalid&lt;br&gt;&amp;nbsp;fields" style="html=1;strokeColor=#1A1A1A;fillColor=#B3B3B3;" vertex="1" parent="122">
                    <mxGeometry x="597.5" y="237.5" width="115" height="50" as="geometry"/>
                </mxCell>
                <mxCell id="89" value="Search Database&lt;br&gt;for feeds that match" style="html=1;strokeColor=#1A1A1A;fillColor=#B3B3B3;" vertex="1" parent="122">
                    <mxGeometry x="465" y="80" width="145" height="45" as="geometry"/>
                </mxCell>
                <mxCell id="90" style="endArrow=open;edgeStyle=elbowEdgeStyle;html=1;exitX=1;exitY=1;exitDx=0;exitDy=0;strokeColor=#1A1A1A;fillColor=#B3B3B3;" edge="1" parent="122" source="92" target="87">
                    <mxGeometry relative="1" as="geometry">
                        <mxPoint x="330" y="352.5" as="sourcePoint"/>
                        <Array as="points">
                            <mxPoint x="320" y="217.5"/>
                        </Array>
                    </mxGeometry>
                </mxCell>
                <mxCell id="117" value="[ supplied info is invalid ]" style="edgeLabel;html=1;align=center;verticalAlign=middle;resizable=0;points=[];strokeColor=#1A1A1A;fillColor=#B3B3B3;" vertex="1" connectable="0" parent="90">
                    <mxGeometry x="0.1329" y="-3" relative="1" as="geometry">
                        <mxPoint as="offset"/>
                    </mxGeometry>
                </mxCell>
                <mxCell id="91" value="&lt;span style=&quot;orphans: 2; text-align: center; text-indent: 0px; widows: 2; text-decoration-thickness: initial; text-decoration-style: initial; text-decoration-color: initial; float: none; display: inline !important;&quot;&gt;[ supplied info is valid ]&lt;/span&gt;" style="edgeStyle=elbowEdgeStyle;html=1;exitX=0.5;exitY=0;exitDx=0;exitDy=0;endArrow=open;entryX=0;entryY=0.5;entryDx=0;entryDy=0;strokeColor=#1A1A1A;fillColor=#B3B3B3;" edge="1" parent="122" source="92" target="89">
                    <mxGeometry x="0.2857" relative="1" as="geometry">
                        <mxPoint x="390" y="187.5" as="sourcePoint"/>
                        <Array as="points">
                            <mxPoint x="320" y="117.5"/>
                            <mxPoint x="335" y="117.5"/>
                        </Array>
                        <mxPoint x="460" y="117.5" as="targetPoint"/>
                        <mxPoint as="offset"/>
                    </mxGeometry>
                </mxCell>
                <mxCell id="92" value="" style="rhombus;strokeColor=#1A1A1A;fillColor=#B3B3B3;" vertex="1" parent="122">
                    <mxGeometry x="305" y="167.5" width="30" height="30" as="geometry"/>
                </mxCell>
                <mxCell id="111" style="edgeStyle=none;html=1;exitX=0.5;exitY=1;exitDx=0;exitDy=0;entryX=0.5;entryY=0;entryDx=0;entryDy=0;strokeColor=#1A1A1A;fillColor=#B3B3B3;" edge="1" parent="122" source="95" target="87">
                    <mxGeometry relative="1" as="geometry"/>
                </mxCell>
                <mxCell id="116" value="[ feed source &amp;amp;&lt;br&gt;name are not new ]" style="edgeLabel;html=1;align=center;verticalAlign=middle;resizable=0;points=[];strokeColor=#1A1A1A;fillColor=#B3B3B3;" vertex="1" connectable="0" parent="111">
                    <mxGeometry x="-0.2889" relative="1" as="geometry">
                        <mxPoint y="18" as="offset"/>
                    </mxGeometry>
                </mxCell>
                <mxCell id="95" value="" style="rhombus;strokeColor=#1A1A1A;fillColor=#B3B3B3;" vertex="1" parent="122">
                    <mxGeometry x="640" y="87.5" width="30" height="30" as="geometry"/>
                </mxCell>
                <mxCell id="98" style="edgeStyle=orthogonalEdgeStyle;html=1;exitX=1;exitY=0.5;exitDx=0;exitDy=0;endArrow=open;entryX=0;entryY=0.5;entryDx=0;entryDy=0;strokeColor=#1A1A1A;fillColor=#B3B3B3;" edge="1" parent="122" source="89" target="95">
                    <mxGeometry relative="1" as="geometry">
                        <mxPoint x="510" y="127.5" as="sourcePoint"/>
                        <mxPoint x="660" y="127.5" as="targetPoint"/>
                    </mxGeometry>
                </mxCell>
                <mxCell id="102" value="" style="ellipse;html=1;shape=startState;fillColor=#B3B3B3;strokeColor=#1A1A1A;" vertex="1" parent="122">
                    <mxGeometry x="10" y="167.5" width="30" height="30" as="geometry"/>
                </mxCell>
                <mxCell id="103" value="" style="edgeStyle=orthogonalEdgeStyle;html=1;verticalAlign=bottom;endArrow=open;endSize=8;strokeColor=#1A1A1A;entryX=0;entryY=0.5;entryDx=0;entryDy=0;exitX=1;exitY=0.5;exitDx=0;exitDy=0;fillColor=#B3B3B3;" edge="1" parent="122" source="102" target="86">
                    <mxGeometry relative="1" as="geometry">
                        <mxPoint x="90" y="122.5" as="targetPoint"/>
                    </mxGeometry>
                </mxCell>
                <mxCell id="104" value="" style="ellipse;html=1;shape=endState;fillColor=#000000;strokeColor=#1A1A1A;" vertex="1" parent="122">
                    <mxGeometry x="1020" y="247.5" width="30" height="30" as="geometry"/>
                </mxCell>
                <mxCell id="84" value="" style="endArrow=open;html=1;rounded=0;align=center;verticalAlign=top;endFill=0;labelBackgroundColor=none;endSize=6;entryX=0;entryY=0.5;entryDx=0;entryDy=0;strokeColor=#1A1A1A;fillColor=#B3B3B3;" edge="1" parent="122" source="87" target="104">
                    <mxGeometry relative="1" as="geometry">
                        <mxPoint x="960" y="112.5" as="sourcePoint"/>
                        <mxPoint x="860" y="262.5" as="targetPoint"/>
                    </mxGeometry>
                </mxCell>
                <mxCell id="107" value="Input Feed&lt;br&gt;info" style="html=1;fillColor=#B3B3B3;strokeColor=#1A1A1A;" vertex="1" parent="122">
                    <mxGeometry x="190" y="162.5" width="90" height="40" as="geometry"/>
                </mxCell>
                <mxCell id="85" style="endArrow=open;edgeStyle=elbowEdgeStyle;html=1;exitX=1;exitY=0.5;exitDx=0;exitDy=0;strokeColor=#1A1A1A;fillColor=#B3B3B3;" edge="1" parent="122" source="107" target="92">
                    <mxGeometry relative="1" as="geometry"/>
                </mxCell>
                <mxCell id="109" style="endArrow=open;edgeStyle=elbowEdgeStyle;html=1;exitX=1;exitY=0.5;exitDx=0;exitDy=0;entryX=0;entryY=0.5;entryDx=0;entryDy=0;strokeColor=#1A1A1A;fillColor=#B3B3B3;" edge="1" parent="122" source="86" target="107">
                    <mxGeometry relative="1" as="geometry">
                        <mxPoint x="300" y="257.5" as="sourcePoint"/>
                        <mxPoint x="315" y="192.5" as="targetPoint"/>
                    </mxGeometry>
                </mxCell>
                <mxCell id="112" value="Register new&lt;br&gt;feed to DB" style="html=1;strokeColor=#1A1A1A;fillColor=#B3B3B3;" vertex="1" parent="122">
                    <mxGeometry x="840" y="80" width="110" height="45" as="geometry"/>
                </mxCell>
                <mxCell id="113" value="Show Confirmation&lt;br&gt;message to user" style="html=1;fillColor=#B3B3B3;strokeColor=#1A1A1A;" vertex="1" parent="122">
                    <mxGeometry x="980" y="80" width="110" height="45" as="geometry"/>
                </mxCell>
                <mxCell id="114" value="" style="edgeStyle=orthogonalEdgeStyle;html=1;endArrow=open;strokeColor=#1A1A1A;fillColor=#B3B3B3;" edge="1" parent="122" source="112" target="113">
                    <mxGeometry relative="1" as="geometry">
                        <mxPoint x="920" y="87.5" as="sourcePoint"/>
                        <mxPoint x="980" y="77.5" as="targetPoint"/>
                    </mxGeometry>
                </mxCell>
                <mxCell id="88" value="" style="edgeStyle=orthogonalEdgeStyle;html=1;endArrow=open;exitX=1;exitY=0.5;exitDx=0;exitDy=0;entryX=0;entryY=0.5;entryDx=0;entryDy=0;strokeColor=#1A1A1A;fillColor=#B3B3B3;" edge="1" parent="122" source="95" target="112">
                    <mxGeometry relative="1" as="geometry">
                        <mxPoint x="700" y="157.5" as="sourcePoint"/>
                        <mxPoint x="790" y="102.5" as="targetPoint"/>
                    </mxGeometry>
                </mxCell>
                <mxCell id="115" value="[ feed source &amp;amp;&lt;br&gt;name are unique ]" style="edgeLabel;html=1;align=center;verticalAlign=middle;resizable=0;points=[];strokeColor=#1A1A1A;fillColor=#B3B3B3;" vertex="1" connectable="0" parent="88">
                    <mxGeometry x="-0.2833" y="1" relative="1" as="geometry">
                        <mxPoint x="8" y="-1" as="offset"/>
                    </mxGeometry>
                </mxCell>
                <mxCell id="101" value="" style="endArrow=open;html=1;rounded=0;align=center;verticalAlign=top;endFill=0;labelBackgroundColor=none;endSize=6;entryX=0.5;entryY=0;entryDx=0;entryDy=0;strokeColor=#1A1A1A;fillColor=#B3B3B3;" edge="1" parent="122" source="113" target="104">
                    <mxGeometry relative="1" as="geometry">
                        <mxPoint x="1101.666666666667" y="200" as="sourcePoint"/>
                        <mxPoint x="1015" y="245" as="targetPoint"/>
                    </mxGeometry>
                </mxCell>
                <mxCell id="127" value="" style="ellipse;html=1;shape=startState;fillColor=#000000;strokeColor=#1A1A1A;" vertex="1" parent="122">
                    <mxGeometry x="60" y="-502.5" width="30" height="30" as="geometry"/>
                </mxCell>
                <mxCell id="128" value="" style="ellipse;html=1;shape=endState;fillColor=#000000;strokeColor=#1A1A1A;" vertex="1" parent="122">
                    <mxGeometry x="1010" y="-432.5" width="30" height="30" as="geometry"/>
                </mxCell>
                <mxCell id="129" value="" style="ellipse;html=1;shape=endState;fillColor=#000000;strokeColor=#1A1A1A;" vertex="1" parent="122">
                    <mxGeometry x="810" y="-122.5" width="30" height="30" as="geometry"/>
                </mxCell>
                <mxCell id="130" value="" style="ellipse;html=1;shape=startState;fillColor=#000000;strokeColor=#1A1A1A;" vertex="1" parent="122">
                    <mxGeometry x="70" y="-202.5" width="30" height="30" as="geometry"/>
                </mxCell>
                <mxCell id="131" value="" style="ellipse;html=1;shape=startState;fillColor=#000000;strokeColor=#1A1A1A;" vertex="1" parent="122">
                    <mxGeometry x="10" y="167.5" width="30" height="30" as="geometry"/>
                </mxCell>
                <mxCell id="123" value="Regular User" style="swimlane;whiteSpace=wrap;html=1;strokeColor=#1A1A1A;fillColor=#B3B3B3;startSize=23;" vertex="1" parent="1">
                    <mxGeometry x="60" y="20" width="1060" height="650" as="geometry"/>
                </mxCell>
                <mxCell id="11" value="Register" style="html=1;strokeColor=#1A1A1A;fillColor=#B3B3B3;" vertex="1" parent="123">
                    <mxGeometry x="90" y="167.5" width="90" height="30" as="geometry"/>
                </mxCell>
                <mxCell id="12" value="Show message&lt;br&gt;specifing the invalid&lt;br&gt;&amp;nbsp;fields" style="html=1;strokeColor=#1A1A1A;fillColor=#B3B3B3;" vertex="1" parent="123">
                    <mxGeometry x="540" y="227.5" width="115" height="50" as="geometry"/>
                </mxCell>
                <mxCell id="13" value="Register new&lt;br&gt;user to DB" style="html=1;strokeColor=#1A1A1A;fillColor=#B3B3B3;" vertex="1" parent="123">
                    <mxGeometry x="770" y="80" width="110" height="45" as="geometry"/>
                </mxCell>
                <mxCell id="17" value="&lt;span style=&quot;orphans: 2; text-align: center; text-indent: 0px; widows: 2; text-decoration-thickness: initial; text-decoration-style: initial; text-decoration-color: initial; float: none; display: inline !important;&quot;&gt;[ supplied info is invalid ]&lt;/span&gt;" style="endArrow=open;edgeStyle=elbowEdgeStyle;html=1;exitX=1;exitY=1;exitDx=0;exitDy=0;strokeColor=#1A1A1A;fillColor=#B3B3B3;" edge="1" parent="123" source="14" target="12">
                    <mxGeometry x="-0.1579" relative="1" as="geometry">
                        <mxPoint x="240" y="352.5" as="sourcePoint"/>
                        <Array as="points">
                            <mxPoint x="230" y="217.5"/>
                        </Array>
                        <mxPoint as="offset"/>
                    </mxGeometry>
                </mxCell>
                <mxCell id="14" value="" style="rhombus;strokeColor=#1A1A1A;fillColor=#B3B3B3;" vertex="1" parent="123">
                    <mxGeometry x="215" y="167.5" width="30" height="30" as="geometry"/>
                </mxCell>
                <mxCell id="21" style="endArrow=open;edgeStyle=elbowEdgeStyle;html=1;strokeColor=#1A1A1A;fillColor=#B3B3B3;" edge="1" parent="123" source="11" target="14">
                    <mxGeometry relative="1" as="geometry"/>
                </mxCell>
                <mxCell id="26" value="" style="rhombus;strokeColor=#1A1A1A;fillColor=#B3B3B3;" vertex="1" parent="123">
                    <mxGeometry x="582.5" y="87.5" width="30" height="30" as="geometry"/>
                </mxCell>
                <mxCell id="29" value="&lt;span style=&quot;orphans: 2; text-align: center; text-indent: 0px; widows: 2; text-decoration-thickness: initial; text-decoration-style: initial; text-decoration-color: initial; float: none; display: inline !important;&quot;&gt;[ email or username is&lt;/span&gt;&lt;br style=&quot;border-color: rgb(0, 0, 0); orphans: 2; text-align: center; text-indent: 0px; widows: 2; text-decoration-thickness: initial; text-decoration-style: initial; text-decoration-color: initial;&quot;&gt;&lt;span style=&quot;orphans: 2; text-align: center; text-indent: 0px; widows: 2; text-decoration-thickness: initial; text-decoration-style: initial; text-decoration-color: initial; float: none; display: inline !important;&quot;&gt;&amp;nbsp;already in use]&lt;/span&gt;" style="edgeStyle=orthogonalEdgeStyle;html=1;exitX=0.5;exitY=1;exitDx=0;exitDy=0;entryX=0.5;entryY=0;entryDx=0;entryDy=0;endArrow=open;strokeColor=#1A1A1A;fillColor=#B3B3B3;" edge="1" parent="123" source="26" target="12">
                    <mxGeometry x="-0.0909" y="3" relative="1" as="geometry">
                        <mxPoint x="450" y="37.5" as="sourcePoint"/>
                        <mxPoint x="440" y="182.5" as="targetPoint"/>
                        <mxPoint as="offset"/>
                    </mxGeometry>
                </mxCell>
                <mxCell id="31" value="&lt;span style=&quot;orphans: 2; text-align: center; text-indent: 0px; widows: 2; text-decoration-thickness: initial; text-decoration-style: initial; text-decoration-color: initial; float: none; display: inline !important;&quot;&gt;[ email and username&lt;/span&gt;&lt;br style=&quot;border-color: rgb(0, 0, 0); orphans: 2; text-align: center; text-indent: 0px; widows: 2; text-decoration-thickness: initial; text-decoration-style: initial; text-decoration-color: initial;&quot;&gt;&lt;span style=&quot;orphans: 2; text-align: center; text-indent: 0px; widows: 2; text-decoration-thickness: initial; text-decoration-style: initial; text-decoration-color: initial; float: none; display: inline !important;&quot;&gt;&amp;nbsp;are&amp;nbsp;not in use]&lt;/span&gt;" style="edgeStyle=orthogonalEdgeStyle;html=1;exitX=1;exitY=0.5;exitDx=0;exitDy=0;endArrow=open;strokeColor=#1A1A1A;fillColor=#B3B3B3;" edge="1" parent="123" source="26" target="13">
                    <mxGeometry relative="1" as="geometry">
                        <mxPoint x="420" y="127.5" as="sourcePoint"/>
                        <mxPoint x="510" y="102.5" as="targetPoint"/>
                    </mxGeometry>
                </mxCell>
                <mxCell id="36" value="Show Confirmation&lt;br&gt;message to user" style="html=1;fillColor=#B3B3B3;strokeColor=#1A1A1A;" vertex="1" parent="123">
                    <mxGeometry x="930" y="80" width="110" height="45" as="geometry"/>
                </mxCell>
                <mxCell id="39" value="" style="endArrow=open;html=1;rounded=0;align=center;verticalAlign=top;endFill=0;labelBackgroundColor=none;endSize=6;entryX=0.5;entryY=0;entryDx=0;entryDy=0;strokeColor=#1A1A1A;fillColor=#B3B3B3;" edge="1" parent="123" source="36" target="68">
                    <mxGeometry relative="1" as="geometry">
                        <mxPoint x="675" y="270" as="sourcePoint"/>
                        <mxPoint x="985" y="245" as="targetPoint"/>
                    </mxGeometry>
                </mxCell>
                <mxCell id="45" value="Login" style="html=1;strokeColor=#1A1A1A;fillColor=#B3B3B3;" vertex="1" parent="123">
                    <mxGeometry x="90" y="467.5" width="90" height="30" as="geometry"/>
                </mxCell>
                <mxCell id="46" value="Show message&lt;br&gt;specifing the invalid&lt;br&gt;&amp;nbsp;fields" style="html=1;strokeColor=#1A1A1A;fillColor=#B3B3B3;" vertex="1" parent="123">
                    <mxGeometry x="467.5" y="537.5" width="115" height="50" as="geometry"/>
                </mxCell>
                <mxCell id="47" value="&lt;span style=&quot;orphans: 2; text-align: center; text-indent: 0px; widows: 2; text-decoration-thickness: initial; text-decoration-style: initial; text-decoration-color: initial; float: none; display: inline !important;&quot;&gt;[ email and password&lt;/span&gt;&lt;br style=&quot;border-color: rgb(0, 0, 0); orphans: 2; text-align: center; text-indent: 0px; widows: 2; text-decoration-thickness: initial; text-decoration-style: initial; text-decoration-color: initial;&quot;&gt;&lt;span style=&quot;orphans: 2; text-align: center; text-indent: 0px; widows: 2; text-decoration-thickness: initial; text-decoration-style: initial; text-decoration-color: initial; float: none; display: inline !important;&quot;&gt;match&amp;nbsp;an existing user ]&lt;/span&gt;" style="edgeStyle=orthogonalEdgeStyle;html=1;endArrow=open;exitX=1;exitY=0.5;exitDx=0;exitDy=0;entryX=0;entryY=0.5;entryDx=0;entryDy=0;strokeColor=#1A1A1A;fillColor=#B3B3B3;" edge="1" parent="123">
                    <mxGeometry relative="1" as="geometry">
                        <mxPoint x="540" y="402.5" as="sourcePoint"/>
                        <mxPoint x="727.5" y="402.5" as="targetPoint"/>
                    </mxGeometry>
                </mxCell>
                <mxCell id="48" value="Search Database&lt;br&gt;for user that matches" style="html=1;strokeColor=#1A1A1A;fillColor=#B3B3B3;" vertex="1" parent="123">
                    <mxGeometry x="365" y="380" width="120" height="45" as="geometry"/>
                </mxCell>
                <mxCell id="49" style="endArrow=open;edgeStyle=elbowEdgeStyle;html=1;exitX=1;exitY=1;exitDx=0;exitDy=0;strokeColor=#1A1A1A;fillColor=#B3B3B3;" edge="1" parent="123" source="51" target="46">
                    <mxGeometry relative="1" as="geometry">
                        <mxPoint x="240" y="652.5" as="sourcePoint"/>
                        <Array as="points">
                            <mxPoint x="230" y="517.5"/>
                        </Array>
                    </mxGeometry>
                </mxCell>
                <mxCell id="119" value="[ supplied info is invalid ]" style="edgeLabel;html=1;align=center;verticalAlign=middle;resizable=0;points=[];strokeColor=#1A1A1A;fillColor=#B3B3B3;" vertex="1" connectable="0" parent="49">
                    <mxGeometry x="0.0709" y="2" relative="1" as="geometry">
                        <mxPoint y="1" as="offset"/>
                    </mxGeometry>
                </mxCell>
                <mxCell id="50" value="&lt;span style=&quot;orphans: 2; text-align: center; text-indent: 0px; widows: 2; text-decoration-thickness: initial; text-decoration-style: initial; text-decoration-color: initial; float: none; display: inline !important;&quot;&gt;[ supplied info is valid ]&lt;/span&gt;" style="edgeStyle=elbowEdgeStyle;html=1;exitX=0.5;exitY=0;exitDx=0;exitDy=0;endArrow=open;entryX=0;entryY=0.5;entryDx=0;entryDy=0;strokeColor=#1A1A1A;fillColor=#B3B3B3;" edge="1" parent="123" source="51" target="48">
                    <mxGeometry x="0.25" relative="1" as="geometry">
                        <mxPoint x="300" y="487.5" as="sourcePoint"/>
                        <Array as="points">
                            <mxPoint x="230" y="417.5"/>
                            <mxPoint x="245" y="417.5"/>
                        </Array>
                        <mxPoint x="370" y="417.5" as="targetPoint"/>
                        <mxPoint as="offset"/>
                    </mxGeometry>
                </mxCell>
                <mxCell id="51" value="" style="rhombus;strokeColor=#1A1A1A;fillColor=#B3B3B3;" vertex="1" parent="123">
                    <mxGeometry x="215" y="467.5" width="30" height="30" as="geometry"/>
                </mxCell>
                <mxCell id="44" style="endArrow=open;edgeStyle=elbowEdgeStyle;html=1;strokeColor=#1A1A1A;fillColor=#B3B3B3;" edge="1" parent="123" source="45" target="51">
                    <mxGeometry relative="1" as="geometry"/>
                </mxCell>
                <mxCell id="54" value="" style="rhombus;strokeColor=#1A1A1A;fillColor=#B3B3B3;" vertex="1" parent="123">
                    <mxGeometry x="510" y="387.5" width="30" height="30" as="geometry"/>
                </mxCell>
                <mxCell id="55" value="&lt;span style=&quot;orphans: 2; text-align: center; text-indent: 0px; widows: 2; text-decoration-thickness: initial; text-decoration-style: initial; text-decoration-color: initial; float: none; display: inline !important;&quot;&gt;[ email and password&lt;/span&gt;&lt;br style=&quot;border-color: rgb(0, 0, 0); orphans: 2; text-align: center; text-indent: 0px; widows: 2; text-decoration-thickness: initial; text-decoration-style: initial; text-decoration-color: initial;&quot;&gt;&lt;span style=&quot;orphans: 2; text-align: center; text-indent: 0px; widows: 2; text-decoration-thickness: initial; text-decoration-style: initial; text-decoration-color: initial; float: none; display: inline !important;&quot;&gt;&amp;nbsp;do not match&amp;nbsp;any&lt;/span&gt;&lt;br style=&quot;border-color: rgb(0, 0, 0); orphans: 2; text-align: center; text-indent: 0px; widows: 2; text-decoration-thickness: initial; text-decoration-style: initial; text-decoration-color: initial;&quot;&gt;&lt;span style=&quot;orphans: 2; text-align: center; text-indent: 0px; widows: 2; text-decoration-thickness: initial; text-decoration-style: initial; text-decoration-color: initial; float: none; display: inline !important;&quot;&gt;&amp;nbsp;existing user ]&lt;/span&gt;" style="edgeStyle=orthogonalEdgeStyle;html=1;exitX=0.5;exitY=1;exitDx=0;exitDy=0;entryX=0.5;entryY=0;entryDx=0;entryDy=0;endArrow=open;strokeColor=#1A1A1A;fillColor=#B3B3B3;" edge="1" parent="123">
                    <mxGeometry relative="1" as="geometry">
                        <mxPoint x="525" y="417.5" as="sourcePoint"/>
                        <mxPoint x="525" y="537.5" as="targetPoint"/>
                        <mxPoint as="offset"/>
                    </mxGeometry>
                </mxCell>
                <mxCell id="57" style="edgeStyle=orthogonalEdgeStyle;html=1;exitX=1;exitY=0.5;exitDx=0;exitDy=0;endArrow=open;entryX=0;entryY=0.5;entryDx=0;entryDy=0;strokeColor=#1A1A1A;fillColor=#B3B3B3;" edge="1" parent="123" source="48" target="54">
                    <mxGeometry relative="1" as="geometry">
                        <mxPoint x="420" y="427.5" as="sourcePoint"/>
                        <mxPoint x="570" y="427.5" as="targetPoint"/>
                    </mxGeometry>
                </mxCell>
                <mxCell id="59" value="Show Confirmation&lt;br&gt;message" style="html=1;fillColor=#B3B3B3;strokeColor=#1A1A1A;" vertex="1" parent="123">
                    <mxGeometry x="730" y="472.5" width="110" height="45" as="geometry"/>
                </mxCell>
                <mxCell id="60" value="" style="endArrow=open;html=1;rounded=0;align=center;verticalAlign=top;endFill=0;labelBackgroundColor=none;endSize=6;entryX=0.5;entryY=0;entryDx=0;entryDy=0;strokeColor=#1A1A1A;fillColor=#B3B3B3;" edge="1" parent="123" source="59" target="73">
                    <mxGeometry relative="1" as="geometry">
                        <mxPoint x="475" y="572.5" as="sourcePoint"/>
                        <mxPoint x="785" y="547.5" as="targetPoint"/>
                    </mxGeometry>
                </mxCell>
                <mxCell id="62" value="" style="edgeStyle=orthogonalEdgeStyle;html=1;endArrow=open;strokeColor=#1A1A1A;fillColor=#B3B3B3;" edge="1" parent="123" source="13" target="36">
                    <mxGeometry relative="1" as="geometry">
                        <mxPoint x="700" y="112.5" as="sourcePoint"/>
                        <mxPoint x="760" y="102.5" as="targetPoint"/>
                    </mxGeometry>
                </mxCell>
                <mxCell id="66" value="" style="ellipse;html=1;shape=startState;fillColor=#B3B3B3;strokeColor=#1A1A1A;" vertex="1" parent="123">
                    <mxGeometry x="20" y="167.5" width="30" height="30" as="geometry"/>
                </mxCell>
                <mxCell id="67" value="" style="edgeStyle=orthogonalEdgeStyle;html=1;verticalAlign=bottom;endArrow=open;endSize=8;strokeColor=#1A1A1A;entryX=0;entryY=0.5;entryDx=0;entryDy=0;exitX=1;exitY=0.5;exitDx=0;exitDy=0;fillColor=#B3B3B3;" edge="1" source="66" parent="123" target="11">
                    <mxGeometry relative="1" as="geometry">
                        <mxPoint x="125" y="687.5" as="targetPoint"/>
                    </mxGeometry>
                </mxCell>
                <mxCell id="68" value="" style="ellipse;html=1;shape=endState;fillColor=#000000;strokeColor=#1A1A1A;" vertex="1" parent="123">
                    <mxGeometry x="970" y="237.5" width="30" height="30" as="geometry"/>
                </mxCell>
                <mxCell id="5" value="" style="endArrow=open;html=1;rounded=0;align=center;verticalAlign=top;endFill=0;labelBackgroundColor=none;endSize=6;entryX=0;entryY=0.5;entryDx=0;entryDy=0;strokeColor=#1A1A1A;fillColor=#B3B3B3;" edge="1" target="68" parent="123" source="12">
                    <mxGeometry relative="1" as="geometry">
                        <mxPoint x="870" y="112.5" as="sourcePoint"/>
                        <mxPoint x="970.0000907364124" y="260.0521735974387" as="targetPoint"/>
                    </mxGeometry>
                </mxCell>
                <mxCell id="71" value="" style="ellipse;html=1;shape=startState;fillColor=#000000;strokeColor=#1A1A1A;" vertex="1" parent="123">
                    <mxGeometry x="30" y="467.5" width="30" height="30" as="geometry"/>
                </mxCell>
                <mxCell id="72" value="" style="edgeStyle=orthogonalEdgeStyle;html=1;verticalAlign=bottom;endArrow=open;endSize=8;strokeColor=#1A1A1A;entryX=0;entryY=0.5;entryDx=0;entryDy=0;exitX=1;exitY=0.5;exitDx=0;exitDy=0;fillColor=#B3B3B3;" edge="1" parent="123" source="71" target="45">
                    <mxGeometry relative="1" as="geometry">
                        <mxPoint x="110" y="422.5" as="targetPoint"/>
                    </mxGeometry>
                </mxCell>
                <mxCell id="73" value="" style="ellipse;html=1;shape=endState;fillColor=#000000;strokeColor=#1A1A1A;" vertex="1" parent="123">
                    <mxGeometry x="770" y="547.5" width="30" height="30" as="geometry"/>
                </mxCell>
                <mxCell id="75" value="" style="edgeStyle=orthogonalEdgeStyle;html=1;endArrow=open;exitX=0.5;exitY=1;exitDx=0;exitDy=0;entryX=0.5;entryY=0;entryDx=0;entryDy=0;strokeColor=#1A1A1A;fillColor=#B3B3B3;" edge="1" parent="123" source="76" target="59">
                    <mxGeometry relative="1" as="geometry">
                        <mxPoint x="880" y="440" as="sourcePoint"/>
                        <mxPoint x="1115" y="497.5" as="targetPoint"/>
                    </mxGeometry>
                </mxCell>
                <mxCell id="76" value="Load User from DB&lt;br&gt;as logged in user" style="whiteSpace=wrap;html=1;strokeColor=#1A1A1A;fillColor=#B3B3B3;" vertex="1" parent="123">
                    <mxGeometry x="727.5" y="380" width="115" height="45" as="geometry"/>
                </mxCell>
                <mxCell id="80" value="Search Database&lt;br&gt;for user that matches" style="html=1;strokeColor=#1A1A1A;fillColor=#B3B3B3;" vertex="1" parent="123">
                    <mxGeometry x="390" y="80" width="120" height="45" as="geometry"/>
                </mxCell>
                <mxCell id="82" style="html=1;exitX=1;exitY=0.5;exitDx=0;exitDy=0;entryX=0;entryY=0.5;entryDx=0;entryDy=0;endArrow=open;strokeColor=#1A1A1A;fillColor=#B3B3B3;" edge="1" parent="123" source="80" target="26">
                    <mxGeometry relative="1" as="geometry">
                        <mxPoint x="607.5" y="127.5" as="sourcePoint"/>
                        <mxPoint x="607.5" y="237.5" as="targetPoint"/>
                    </mxGeometry>
                </mxCell>
                <mxCell id="43" value="" style="endArrow=open;html=1;rounded=0;align=center;verticalAlign=top;endFill=0;labelBackgroundColor=none;endSize=6;entryX=0;entryY=0.5;entryDx=0;entryDy=0;strokeColor=#1A1A1A;fillColor=#B3B3B3;" edge="1" parent="123" source="46" target="73">
                    <mxGeometry relative="1" as="geometry">
                        <mxPoint x="870" y="412.5" as="sourcePoint"/>
                        <mxPoint x="770" y="562.5" as="targetPoint"/>
                    </mxGeometry>
                </mxCell>
                <mxCell id="18" style="edgeStyle=elbowEdgeStyle;html=1;exitX=0.5;exitY=0;exitDx=0;exitDy=0;entryX=0;entryY=0.5;entryDx=0;entryDy=0;endArrow=open;strokeColor=#1A1A1A;fillColor=#B3B3B3;" edge="1" parent="123" source="14" target="80">
                    <mxGeometry relative="1" as="geometry">
                        <mxPoint x="300" y="187.5" as="sourcePoint"/>
                        <Array as="points">
                            <mxPoint x="230" y="117.5"/>
                            <mxPoint x="245" y="117.5"/>
                        </Array>
                    </mxGeometry>
                </mxCell>
                <mxCell id="118" value="[ supplied info is valid ]" style="edgeLabel;html=1;align=center;verticalAlign=middle;resizable=0;points=[];strokeColor=#1A1A1A;fillColor=#B3B3B3;" vertex="1" connectable="0" parent="18">
                    <mxGeometry x="0.1185" y="-2" relative="1" as="geometry">
                        <mxPoint y="-2" as="offset"/>
                    </mxGeometry>
                </mxCell>
                <mxCell id="126" value="" style="ellipse;html=1;shape=startState;fillColor=#000000;strokeColor=#1A1A1A;" vertex="1" parent="123">
                    <mxGeometry x="20" y="167.5" width="30" height="30" as="geometry"/>
                </mxCell>
            </root>
        </mxGraphModel>
    </diagram>
</mxfile>